<svg width="1024" height="1024" viewBox="0 0 1024 1024" fill="none" xmlns="http://www.w3.org/2000/svg">
<path d="M310.689 560.375C311.037 552.814 312.297 545.601 314.47 538.735C316.642 531.783 319.554 525.091 323.204 518.66C326.854 512.142 331.112 506.015 335.979 500.28C340.932 494.457 346.277 489.373 352.013 485.028C364.44 475.729 376.998 471.079 389.686 471.079C404.547 471.079 414.454 477.206 419.408 489.46C421.146 493.631 421.972 498.585 421.885 504.321C421.798 509.97 420.712 515.227 418.626 520.094C416.54 524.874 413.629 529.263 409.892 533.26C406.242 537.171 401.853 540.691 396.726 543.819C391.685 546.948 386.167 549.598 380.17 551.771C367.83 556.116 354.62 558.376 340.541 558.55C340.194 559.766 339.976 561.591 339.89 564.025C339.803 566.458 340.063 569.196 340.672 572.237C341.28 575.192 342.323 577.843 343.8 580.189C346.929 585.403 351.448 588.011 357.358 588.011C367.439 588.011 377.259 585.056 386.818 579.146C390.208 577.147 392.945 575.105 395.031 573.019C397.204 570.847 399.072 569.76 400.636 569.76C402.201 569.76 403.548 570.716 404.678 572.628C405.894 574.453 406.503 576.539 406.503 578.886C406.503 583.492 405.199 587.489 402.592 590.878C391.642 601.829 375.347 607.304 353.708 607.304C340.932 607.304 330.678 603.48 322.943 595.832C314.252 587.142 310.168 575.322 310.689 560.375ZM386.818 488.417C377.693 488.417 368.916 494.674 360.486 507.189C353.36 517.965 347.624 530.74 343.279 545.514C357.792 544.036 370.393 538.301 381.083 528.307C390.903 518.921 395.813 509.926 395.813 501.322C395.813 492.719 392.815 488.417 386.818 488.417ZM565.539 579.668C567.364 579.668 568.277 580.624 568.277 582.536C568.277 590.009 564.41 596.44 556.675 601.829C551.548 605.479 546.681 607.304 542.075 607.304C537.556 607.304 533.949 606.782 531.255 605.739C528.561 604.696 526.128 603.045 523.955 600.786C519.088 595.571 516.655 588.402 516.655 579.277C516.655 577.452 517.003 574.54 517.698 570.543C510.659 581.406 504.619 589.053 499.578 593.486C489.41 602.698 479.46 607.304 469.726 607.304C454.344 607.304 444.263 600.351 439.483 586.446C437.745 581.319 436.876 574.888 436.876 567.153C436.876 559.419 438.049 551.597 440.396 543.689C442.742 535.78 445.914 528.263 449.912 521.137C453.996 514.011 458.689 507.406 463.99 501.322C469.379 495.152 475.027 489.808 480.937 485.288C493.625 475.816 505.097 471.079 515.351 471.079C525.606 471.079 533.819 475.251 539.989 483.594C555.111 431.798 566.495 401.251 574.143 391.952C577.358 388.128 580.748 386.216 584.311 386.216C590.22 386.216 594.696 387.911 597.738 391.3C598.694 392.43 599.172 393.56 599.172 394.69C599.172 395.819 598.476 397.905 597.086 400.947C595.695 403.988 593.653 408.899 590.959 415.677C583.225 436.1 577.793 451.048 574.664 460.52C566.669 484.767 561.281 501.453 558.5 510.578L551.33 534.694C545.16 556.16 542.075 569.804 542.075 575.627C542.075 581.449 544.204 584.361 548.462 584.361C552.373 584.361 555.502 583.839 557.848 582.796L562.802 580.45C563.758 579.928 564.67 579.668 565.539 579.668ZM475.983 587.75C484.935 587.75 495.189 579.016 506.748 561.548C518.828 543.472 527.258 523.788 532.037 502.496C531.69 496.586 529.213 492.241 524.607 489.46C523.043 488.504 520.653 488.026 517.437 488.026C514.309 488.026 510.615 489.199 506.357 491.546C502.185 493.805 498.101 496.89 494.103 500.801C490.192 504.712 486.499 509.318 483.023 514.619C479.633 519.833 476.679 525.395 474.158 531.305C468.683 544.167 465.946 556.812 465.946 569.239C465.946 581.58 469.292 587.75 475.983 587.75ZM705.805 580.319C707.803 580.319 708.803 581.319 708.803 583.318C708.803 590.878 705.066 597.223 697.592 602.35C692.552 605.652 686.642 607.304 679.863 607.304C674.301 607.304 670.043 606 667.088 603.393C661.787 598.7 659.136 592.964 659.136 586.186C659.136 577.582 662.743 564.416 669.956 546.687C656.573 564.763 647.187 576.8 641.799 582.796C636.411 588.706 631.718 593.312 627.72 596.614C619.03 603.74 611.165 607.304 604.125 607.304C593.349 607.304 586.179 602.654 582.616 593.355C581.573 590.487 581.052 587.228 581.052 583.578C581.052 579.841 581.66 575.713 582.877 571.194C584.181 566.588 585.832 561.809 587.831 556.855C589.829 551.901 592.002 546.817 594.348 541.603L601.388 525.96C610.426 505.885 613.772 493.979 611.425 490.242C610.382 488.591 608.427 486.94 605.559 485.288C604.516 484.68 603.995 483.637 603.995 482.16C603.995 480.596 604.603 479.118 605.82 477.728C607.124 476.337 608.775 475.121 610.774 474.078C615.032 472.079 619.29 471.079 623.549 471.079C627.807 471.079 631.023 471.557 633.195 472.513C635.455 473.382 637.28 474.512 638.67 475.903C641.538 478.771 642.972 481.943 642.972 485.419C642.972 488.895 642.407 492.806 641.277 497.151C640.148 501.409 638.67 506.059 636.845 511.099C635.02 516.14 633.021 521.354 630.849 526.742C624.852 540.821 620.811 550.12 618.725 554.639L613.902 564.677C611.208 570.673 609.861 574.888 609.861 577.321C609.861 579.755 610.252 581.493 611.034 582.536C611.816 583.492 613.207 583.969 615.206 583.969C617.291 583.969 619.681 583.014 622.375 581.102C625.069 579.19 628.024 576.626 631.24 573.41C634.455 570.195 637.801 566.502 641.277 562.33C644.754 558.072 648.143 553.683 651.445 549.164C657.963 540.3 662.743 533.173 665.785 527.785C684.209 495.196 694.029 478.162 695.246 476.685C698.027 472.948 700.851 471.079 703.719 471.079C706.674 471.079 709.237 471.427 711.41 472.122C713.583 472.731 715.451 473.643 717.015 474.86C720.665 477.554 721.839 480.248 720.535 482.942C699.33 527.177 687.902 554.987 686.251 566.371C685.816 570.282 685.599 572.976 685.599 574.453C685.599 581.058 687.598 584.361 691.596 584.361C695.332 584.361 698.418 583.709 700.851 582.405C703.284 581.015 704.936 580.319 705.805 580.319Z" fill="black"/>
</svg>
